PathFileType	4	(x/y/z)	S10_PSF_T07
DataRate	CameraRate	NumFrames	NumMarkers	Units	OrigDataRate	OrigDataStartFrame	OrigNumFrames
240	240	4	51	mm	240	324	431
Frame#	Time	Sternum			R.Acromium			L.Acromium			Top.Head			R.ASIS			L.ASIS			R.PSIS			L.PSIS			R.Great.Tro			L.Great.Tro			R.Iliac.Crest			L.Iliac.Crest			V.Sacral			R.Thigh.Upper.Post			R.Thigh.Lower.Ant			R.Thigh.Lower.Post			R.Thigh.Upper.Ant			R.Knee.Lat			R.Knee.Med			R.Shank.Upper.Post			R.Shank.Lower.Ant			R.Shank.Lower.Post			R.Shank.Upper.Ant			R.Ankle.Lat			R.Ankle.Med			R.Heel.Upper			R.Heel.Med			R.Heel.Lat			R.Toe.Lat			R.Toe.Med			R.Toe.Tip			L.Thigh.Upper.Post			L.Thigh.Lower.Ant			L.Thigh.Lower.Post			L.Thigh.Upper.Ant			L.Knee.Lat			L.Knee.Med			L.Shank.Upper.Post			L.Shank.Lower.Ant			L.Shank.Lower.Post			L.Shank.Upper.Ant			L.Ankle.Lat			L.Ankle.Med			L.Heel.Upper			L.Heel.Med			L.Heel.Lat			L.Toe.Lat			L.Toe.Med			L.Toe.Tip			Cervical.Spine			Back			
		X1	Y1	Z1	X2	Y2	Z2	X3	Y3	Z3	X4	Y4	Z4	X5	Y5	Z5	X6	Y6	Z6	X7	Y7	Z7	X8	Y8	Z8	X9	Y9	Z9	X10	Y10	Z10	X11	Y11	Z11	X12	Y12	Z12	X13	Y13	Z13	X14	Y14	Z14	X15	Y15	Z15	X16	Y16	Z16	X17	Y17	Z17	X18	Y18	Z18	X19	Y19	Z19	X20	Y20	Z20	X21	Y21	Z21	X22	Y22	Z22	X23	Y23	Z23	X24	Y24	Z24	X25	Y25	Z25	X26	Y26	Z26	X27	Y27	Z27	X28	Y28	Z28	X29	Y29	Z29	X30	Y30	Z30	X31	Y31	Z31	X32	Y32	Z32	X33	Y33	Z33	X34	Y34	Z34	X35	Y35	Z35	X36	Y36	Z36	X37	Y37	Z37	X38	Y38	Z38	X39	Y39	Z39	X40	Y40	Z40	X41	Y41	Z41	X42	Y42	Z42	X43	Y43	Z43	X44	Y44	Z44	X45	Y45	Z45	X46	Y46	Z46	X47	Y47	Z47	X48	Y48	Z48	X49	Y49	Z49	X50	Y50	Z50	X51	Y51	Z51	

324	1.3458	438.13	1262.8	300.6	324.74	1425.9	450.77	309.93	1441.1	148.41	264.83	1737.4	308.96	379.7	990.95	412.71	381.08	1025.4	184.75	178.71	1015.9	321.2	184.18	1031	240.8	303.88	905.39	474.38	326.33	969.83	120.83	283.94	1068.4	456.9	315.74	1099.6	160.33	161.19	988.27	279.4	357.84	704.46	485.84	431.98	638.1	461.44	370.13	615.58	482.45	421.5	728.78	459.49	382.69	492.81	453.18	406.24	486.02	321.2	182	408.89	431.73	167.86	317.98	431.43	122.16	364.85	425.83	233.17	358.76	440.2	47.21	284.19	411.16	71.158	271.53	332.1	0.070422	313.03	349.63	-20.449	295.52	320.3	-27.521	306.81	381.58	-0.020477	143.48	445.1	31.159	110.48	346.05	59.779	65.398	395.41	340.1	681.55	131.34	425.63	618.17	166.11	354.3	590.54	158.64	415.39	703.97	141.1	400.91	512.81	179.87	396.51	518.8	308.55	331.23	299.82	182.4	394.15	211.1	203.98	331.54	222.99	194.07	394.29	287.22	191.67	352.93	105.27	208.84	365.57	116.95	297.2	283.85	76.443	256.99	295.42	44.071	289.77	289.21	46.961	224.81	465.26	42.832	183.35	495.52	46.623	291.12	548.85	59.73	241.59	239.59	1489.5	312.31	152.61	1282.7	304.11
325	1.35	442.81	1264.2	301.2	328.44	1427.2	450.87	315.54	1442.6	148.38	270.31	1738.9	308.78	384.37	992.55	412.33	385.98	1026.4	184.33	183.54	1017.3	320.68	189.06	1032.3	240.25	308.77	907.2	474.21	330.87	970.48	120.48	288.53	1070	456.43	320.66	1100.6	159.93	166.01	989.65	278.95	365.24	706.7	485.94	440.1	641.29	461.41	378.68	618	482.71	428.46	731.8	459.31	392.79	495.31	453.36	416.44	488.77	321.27	192.63	410.06	431.17	179.19	319.05	431.21	133.17	365.53	425.32	244.16	360.38	440.01	58.827	284.24	410.68	83.066	271.48	331.81	10.984	312.1	348.86	-9.1325	294.04	319.57	-16.466	305.52	380.76	13.823	143.13	445.18	45.73	110.18	346.27	75.013	65.872	395.95	342.21	682.19	131.27	427.29	618.05	165.73	355.68	591.05	158.48	417.7	703.88	140.77	401.73	512.85	179.48	397.7	518.79	308.13	331.55	299.94	182.14	394.27	211.12	203.8	331.68	223.14	193.89	394.59	287.22	191.44	352.92	105.28	208.79	365.56	117.05	297.15	283.81	76.469	256.95	295.38	44.13	289.74	289.2	46.971	224.8	465.25	42.815	183.32	495.51	46.641	291.1	548.84	59.732	241.58	244.18	1490.7	311.83	157.41	1283.9	302.95
326	1.3542	447.48	1265.7	301.77	332.14	1428.4	450.96	321.13	1444	148.36	275.79	1740.4	308.61	389.04	994.14	411.95	390.87	1027.4	183.9	188.36	1018.7	320.2	193.92	1033.5	239.72	313.69	909.03	474.06	335.37	971.1	120.13	293.13	1071.6	455.97	325.55	1101.6	159.5	170.83	991	278.53	372.64	708.96	486.03	448.2	644.52	461.33	387.23	620.47	482.95	435.39	734.84	459.08	402.8	497.84	453.51	426.59	491.58	321.33	203.22	411.09	430.64	190.55	319.97	430.99	144.18	366.02	424.82	255.14	361.9	439.82	70.513	284.05	410.18	95.03	271.24	331.53	21.944	310.91	348.12	2.2453	292.29	318.87	-5.3507	303.94	379.97	27.836	142.55	445.25	60.476	109.69	346.48	90.457	66.186	396.47	344.3	682.83	131.22	428.91	617.92	165.34	357.04	591.57	158.36	419.98	703.77	140.44	402.53	512.9	179.08	398.92	518.78	307.7	331.85	300.07	181.89	394.38	211.15	203.63	331.82	223.3	193.71	394.88	287.23	191.21	352.91	105.29	208.74	365.54	117.14	297.09	283.77	76.499	256.91	295.35	44.191	289.71	289.19	46.983	224.78	465.25	42.799	183.3	495.5	46.655	291.08	548.83	59.729	241.56	248.76	1491.9	311.36	162.22	1285.1	301.79
327	1.3583	452.15	1267.1	302.31	335.84	1429.6	451.04	326.72	1445.4	148.34	281.26	1741.9	308.47	393.7	995.73	411.54	395.75	1028.3	183.44	193.18	1020.1	319.74	198.77	1034.8	239.21	318.64	910.87	473.94	339.87	971.68	119.78	297.73	1073.2	455.5	330.41	1102.5	159.04	175.64	992.34	278.14	380.04	711.25	486.1	456.26	647.77	461.19	395.76	622.97	483.17	442.28	737.9	458.81	412.7	500.39	453.63	436.66	494.42	321.37	213.75	411.98	430.12	201.94	320.74	430.76	155.18	366.33	424.34	266.11	363.33	439.62	82.267	283.63	409.67	107.05	270.82	331.23	32.954	309.46	347.39	13.69	290.29	318.19	5.8292	302.08	379.21	42.011	141.75	445.33	75.387	109.03	346.68	106.1	66.35	396.96	346.35	683.47	131.2	430.5	617.79	164.95	358.37	592.09	158.25	422.22	703.66	140.11	403.3	512.96	178.68	400.17	518.78	307.27	332.14	300.2	181.63	394.48	211.19	203.45	331.94	223.46	193.53	395.15	287.25	190.97	352.9	105.3	208.68	365.52	117.23	297.03	283.73	76.532	256.87	295.31	44.253	289.67	289.18	46.997	224.77	465.24	42.783	183.27	495.49	46.666	291.05	548.82	59.721	241.54	253.34	1493.1	310.89	167.03	1286.3	300.65
